<?xml version="1.0" encoding="UTF-8" standalone="no"?>
<!-- Created with Inkscape (http://www.inkscape.org/) -->

<svg
   width="97.756798mm"
   height="43.352371mm"
   viewBox="0 0 97.756797 43.352371"
   version="1.1"
   id="svg1"
   xml:space="preserve"
   xmlns="http://www.w3.org/2000/svg"
   xmlns:svg="http://www.w3.org/2000/svg"><defs
     id="defs1" /><g
     id="layer1"><rect
       style="fill:#f3f3eb;fill-opacity:1;stroke:none;stroke-width:2.5;stroke-linecap:butt;stroke-linejoin:miter;stroke-dasharray:none;stroke-opacity:1"
       id="rect10"
       width="97.756798"
       height="43.352371"
       x="0"
       y="0" /><path
       id="path2"
       style="fill:#d16127;stroke-linejoin:round"
       d="m 32.983103,1.0583333 -3.98477,1.7812871 a 1.250125,1.250125 0 0 0 -0.552421,0.48059 l -2.799312,4.493783 -4.23385,-1.646411 -6.355685,4.2090446 -3.122807,15.685869 -10.88099,11.58017 4.1542681,3.19722 9.7503099,-6.2544 0.03514,-2.91042 -9.6547089,6.11023 -0.574125,-0.44132 9.4826269,-10.08982 3.058211,-15.367026 4.408516,-2.9181686 2.587956,1.0045899 -4.630208,7.4326217 c -1.361907,0.04074 -2.490804,1.147541 -2.490804,2.515613 0,1.39399 1.171918,2.51767 2.568318,2.51767 1.396399,0 2.568319,-1.12368 2.568319,-2.51767 0,-0.504291 -0.154114,-0.972694 -0.415995,-1.365812 L 30.365691,4.9666224 34.002679,3.3413984 Z M 19.748768,19.023129 c 0.546619,0 0.94878,0.405665 0.94878,0.898657 0,0.49297 -0.402161,0.89813 -0.94878,0.89813 -0.54662,0 -0.949296,-0.40516 -0.949296,-0.89813 0,-0.492992 0.402676,-0.898657 0.949296,-0.898657 z" /><path
       id="path3-0"
       style="fill:#454440;stroke-linejoin:bevel"
       d="m 27.190175,15.79852 c -1.396399,0 -2.568319,1.125751 -2.568319,2.519742 0,0.456128 0.125888,0.882751 0.343648,1.251087 l -5.879227,9.497097 -4.093291,2.60862 -0.03514,2.91042 5.952596,-3.71664 c 0,0 6.257034,-10.03304 6.279724,-10.03304 1.396399,0 2.568318,-1.123683 2.568318,-2.517674 0,-1.393991 -1.171919,-2.519742 -2.568318,-2.519742 z m 0,1.619539 c 0.546619,0 0.948779,0.407224 0.948779,0.900203 0,0.492979 -0.40216,0.898137 -0.948779,0.898137 -0.546619,0 -0.949296,-0.405158 -0.949296,-0.898137 0,-0.492979 0.402677,-0.900203 0.949296,-0.900203 z" /><path
       id="path6"
       style="fill:#454440"
       d="m 28.944073,9.1307084 -0.849561,2.3517956 2.640149,0.952913 1.314649,5.374866 -9.125025,14.506093 -9.462988,5.98413 -2.077909,0.0295 -3.8819349,2.50063 6.7024339,-0.0419 10.534758,-6.66368 9.990604,-15.879131 -1.883089,-7.707023 z" /><text
       xml:space="preserve"
       style="font-weight:300;font-size:12.7435px;font-family:Poppins;-inkscape-font-specification:'Poppins Light';text-align:center;writing-mode:lr-tb;direction:ltr;text-anchor:middle;fill:#454440;fill-opacity:1;stroke:none;stroke-width:8.20985;stroke-linecap:butt;stroke-linejoin:miter;stroke-dasharray:none;stroke-opacity:1"
       x="66.699776"
       y="26.149155"
       id="text10"><tspan
         id="tspan10"
         style="font-weight:bold;stroke-width:8.20985"
         x="66.699776"
         y="26.149155">PIPERINE</tspan></text></g></svg>
